<svg xmlns="http://www.w3.org/2000/svg" width="213.679" height="178.501" viewBox="0 0 213.679 178.501">
  <g id="Grupo_25" data-name="Grupo 25" transform="translate(-848.993 -1823.478)">
    <path id="Trazado_106" data-name="Trazado 106" d="M1059.981,1912.187a19.6,19.6,0,0,1-4.452,1.09,55.247,55.247,0,0,1-6.658-.654,5.036,5.036,0,0,0-5.094,2.6c-1.081,1.709-2.133,3.436-3.189,5.161a4.96,4.96,0,0,0-.052,5.539c1.28,2.083,2.626,4.125,3.912,6.205,1.25,2.022,1.078,3.4-.568,5.062-4.614,4.666-5.118,4.929-10.142.725-4.091-3.424-7.862-4.458-12.293-.967-.809.637-1.891.915-2.755,1.495a4.779,4.779,0,0,0-2.3,4.419c.123,2.438.24,4.876.309,7.315.07,2.485-.777,3.59-3.174,4.192a39.722,39.722,0,0,1-3.884.852c-2.348.345-4.152-1.283-3.879-3.4,1.213-9.43-1.361-14.583-9.662-19.355-.1-.059-.152-.21-.178-.247,1.088-.672,2.186-1.353,3.288-2.027a18.252,18.252,0,0,0,6.521-7.2,4.559,4.559,0,0,1,2.156-1.932c13.418-5.311,21.319-15.067,22.278-29.456.945-14.192-5.283-25.207-17.868-31.84-12.042-6.347-24-5.11-35.226,2.6a4.276,4.276,0,0,1-3.409.955c-4.636-.758-8.836.554-12.968,3.445.06-.93.093-1.5.134-2.075a16.846,16.846,0,0,0-10.248-17.342c-2.518-1.161-2.976-3.476-1.088-5.511.047-.051.089-.108.14-.155,4.688-4.333,4.9-5.457,10.316-.771,3.964,3.429,7.44,3.964,12.181,1.141,3.767-2.242,5.79-4.52,5.019-8.929a30.182,30.182,0,0,1-.2-4.176,5.8,5.8,0,0,1,.03-1.667c.99-3.613,4.385-2.879,6.886-3.644,1.736-.531,3.142.336,3.9,2.014,1.009,2.227,1.976,4.473,2.945,6.718a5.235,5.235,0,0,0,5.244,3.415c1.811,0,3.623.136,5.433.222a5.178,5.178,0,0,0,5.319-2.952c.948-1.865,1.982-3.689,2.888-5.574a5.244,5.244,0,0,1,3.575-3.207l6.416,1.958a26.449,26.449,0,0,1,1.114,4.449,13.856,13.856,0,0,1-.456,4.353c-.992,4.044.635,6.421,4.134,8.525,6.43,3.867,6.373,3.968,12.65-.219,5.517-3.682,5.744-3.08,9.972,1.552,1.614,1.769,1.686,3.136.313,5.074-1.45,2.046-2.954,4.055-4.45,6.069a4.857,4.857,0,0,0-.416,5.149c.358.829,1.018,1.545,1.285,2.393,1.718,5.464,5.485,6.749,10.866,6.186,6.485-.678,6.6-.3,7.913,6.109.5,2.442-.1,3.675-2.359,4.689-2.164.973-4.351,1.9-6.52,2.859a5.035,5.035,0,0,0-3.195,4.742c-.077,2.019-.186,4.037-.24,6.057a5.024,5.024,0,0,0,2.789,4.99c1.917,1,3.806,2.053,5.75,2.995a5.211,5.211,0,0,1,3.2,3.573Z" fill="#e6007e"/>
    <path id="Trazado_107" data-name="Trazado 107" d="M900.31,1870.706c-.074-2.533-.118-4.822-.211-7.109-.176-4.328.254-4.918,4.4-5.876.612-.142,1.222-.289,1.837-.418,2.573-.54,3.7.037,4.8,2.475.772,1.72,1.51,3.456,2.278,5.178a6.733,6.733,0,0,0,6.237,4.192c2.576.137,5.154.262,7.733.308a6.764,6.764,0,0,0,6.5-3.78c.989-1.845,1.95-3.7,2.936-5.55a3.357,3.357,0,0,1,4.224-1.761c6.572,1.667,7.05,2.074,5.941,8.688-.853,5.081.591,8.558,5.348,10.692a42,42,0,0,1,4.248,2.667,6.735,6.735,0,0,0,7.515.065c1.72-1.068,3.408-2.19,5.14-3.241,1.948-1.183,3.271-1,4.878.593,4.693,4.65,4.719,4.963.868,10.2-.537.731-1.064,1.469-1.6,2.2a6.748,6.748,0,0,0-.553,7.67q1.746,3.344,3.544,6.658a6.761,6.761,0,0,0,6.67,3.832c2.02-.086,4.039-.192,6.06-.262a3.477,3.477,0,0,1,3.793,2.877c1.811,6.391,1.621,6.7-4.4,9.473a16.954,16.954,0,0,0-5.332,3.452c-2.044,2.192-2.248,13.069-.561,15.555a10.956,10.956,0,0,0,2.555,2.4,15.292,15.292,0,0,0,2.4,1.266c6.446,3.22,5.917,3.35,3.786,10.028a3.148,3.148,0,0,1-3.528,2.339c-2.086-.175-4.168-.4-6.245-.646a6.83,6.83,0,0,0-7.086,3.428c-1.3,2.067-2.552,4.16-3.84,6.233a6.839,6.839,0,0,0-.02,7.871c.982,1.528,1.961,3.058,2.921,4.6,1.422,2.282,1.274,3.539-.6,5.366-4.683,4.569-4.739,4.572-10.05.672-.787-.577-1.583-1.143-2.375-1.713a6.585,6.585,0,0,0-7.306-.486c-2.3,1.173-4.575,2.4-6.844,3.64a6.653,6.653,0,0,0-3.784,6.48c.076,2.02.173,4.04.25,6.061a3.586,3.586,0,0,1-2.934,3.977c-6.322,1.774-6.78,1.6-9.384-4.505-1.164-2.729-2.173-5.794-5.555-6.233a72.446,72.446,0,0,0-11.238-.444c-2.127.058-3.672,1.571-4.689,3.462s-2.008,3.831-3.038,5.733a3.3,3.3,0,0,1-4.065,1.706c-6.587-1.567-6.934-2.063-6.085-8.834.764-6.1.121-7.353-5.226-10.494-1.5-.882-2.909-1.926-4.413-2.806a6.682,6.682,0,0,0-7.335-.056c-1.783,1.1-3.543,2.238-5.315,3.355a3.385,3.385,0,0,1-4.72-.586c-4.28-4.648-5.38-4.713-.882-10.364.564-.708,1.069-1.464,1.6-2.2a6.686,6.686,0,0,0,.542-7.49q-1.771-3.447-3.645-6.841a6.653,6.653,0,0,0-6.51-3.734c-2.021.084-4.04.19-6.061.264a3.553,3.553,0,0,1-3.922-2.988c-1.732-6.414-1.678-6.948,4.581-9.29,4.744-1.776,6.993-4.734,6.6-9.8a43.928,43.928,0,0,1,.207-5.012,6.816,6.816,0,0,0-3.91-6.83c-1.426-.736-2.853-1.47-4.27-2.221a7.99,7.99,0,0,1-1.8-1.057c-2.76-2.609-.4-5.21.161-7.762a3.075,3.075,0,0,1,3.638-2.433c2.014.186,4.03.372,6.036.627a6.867,6.867,0,0,0,7.241-3.506c1.241-2.02,2.459-4.055,3.73-6.056a6.913,6.913,0,0,0,.028-8.052c-1.024-1.584-2.053-3.165-3.034-4.775-1.194-1.958-1.081-3.37.534-4.88,4.64-4.339,4.728-5.294,10.365-.832.818.649,1.7,1.218,2.555,1.82a6.06,6.06,0,0,0,6.36.6,77.116,77.116,0,0,0,8.293-4.461C898.5,1873.262,899.307,1871.843,900.31,1870.706Zm-17.341,47.018a40.245,40.245,0,1,0,50.276-26.669A40.274,40.274,0,0,0,882.969,1917.724Z" fill="#e6007e"/>
    <path id="Trazado_108" data-name="Trazado 108" d="M994.906,1895.831a6.7,6.7,0,1,1,8.307-4.484A6.756,6.756,0,0,1,994.906,1895.831Z" fill="#e6007e"/>
    <path id="Trazado_109" data-name="Trazado 109" d="M934.276,1933.413a13.408,13.408,0,1,1-9-16.733A13.428,13.428,0,0,1,934.276,1933.413Z" fill="#e6007e"/>
  </g>
</svg>
