<svg xmlns="http://www.w3.org/2000/svg" width="34.093" height="34.093" viewBox="0 0 34.093 34.093"><g transform="translate(-637.427 -298.252)"><g transform="translate(-5108.719 -3629.16)"><circle cx="17.047" cy="17.047" r="17.047" transform="translate(5746.146 3927.412)" fill="#707070"/></g><g transform="translate(159 97.734)"><path d="M15.24,3.939c3.587,0,6.3,2.908,6.3,6.786S17.373,18.82,15.24,21c-2.133-2.181-6.3-6.641-6.3-10.276a6.558,6.558,0,0,1,6.3-6.786M15.24,2C10.441,2,7,5.926,7,10.725s5.574,10.324,7.562,12.312a.921.921,0,0,0,1.357,0c1.987-1.987,7.562-7.416,7.562-12.312S20.039,2,15.24,2Z" transform="translate(480.234 204.983)"/><path d="M20.393,11.939a1.454,1.454,0,1,1-1.454,1.454,1.406,1.406,0,0,1,1.454-1.454m0-1.939a3.393,3.393,0,1,0,3.393,3.393A3.393,3.393,0,0,0,20.393,10Z" transform="translate(475.081 200.861)"/></g></g></svg>